<?xml version="1.0" encoding="utf-8"?>
<!-- Generator: Adobe Illustrator 27.5.0, SVG Export Plug-In . SVG Version: 6.00 Build 0)  -->
<svg version="1.1" id="Layer_1" xmlns="http://www.w3.org/2000/svg" xmlns:xlink="http://www.w3.org/1999/xlink" x="0px" y="0px"
	 viewBox="0 0 450 450" style="enable-background:new 0 0 450 450;" xml:space="preserve">
<rect style="fill:#00A3D8;" width="450" height="450"/>
<path style="fill:#8D4000;" d="M270.275,353.058c0,0-0.964-8.954-3.996-21.958c-0.732-3.258-1.597-6.769-2.57-10.466
	c-0.924-3.71-2.088-7.572-3.195-11.594c-1.242-3.984-2.416-8.132-3.809-12.293c-1.383-4.163-2.727-8.409-4.263-12.603
	c-2.941-8.423-6.126-16.781-9.285-24.57c-1.61-3.887-3.066-7.671-4.628-11.21c-1.541-3.545-2.998-6.898-4.343-9.991
	c-1.315-3.102-2.695-5.898-3.826-8.401c-0.278-0.601-0.519-1.119-0.778-1.682c-6.223,3.031-12.809,5.534-19.74,7.391
	c-6.932,1.857-13.887,2.983-20.794,3.47c0.056,0.617,0.108,1.186,0.168,1.846c0.272,2.733,0.476,5.846,0.887,9.189
	c0.382,3.352,0.796,6.982,1.234,10.824c0.418,3.845,1.049,7.85,1.597,12.022c1.159,8.325,2.58,17.155,4.244,25.921
	c0.767,4.4,1.726,8.749,2.61,13.046c0.874,4.3,1.932,8.478,2.849,12.551c1.051,4.036,1.974,7.962,3.029,11.637
	c1.005,3.69,2.013,7.162,3.007,10.35c3.876,12.778,7.518,21.014,7.518,21.014c6.329,14.312,23.061,20.782,37.373,14.454
	C265.112,376.896,271.544,364.975,270.275,353.058z"/>
<path style="fill:#2CD8FF;" d="M265.58,121.477c-11.926-44.506-57.632-70.895-102.138-58.97s-70.895,57.632-58.969,102.138
	c11.925,44.506,57.632,70.895,102.138,58.969C251.116,211.689,277.505,165.983,265.58,121.477z"/>
<path style="fill:#00D1FF;" d="M163.442,73.498c44.506-11.925,90.212,14.463,102.138,58.969c1.436,5.358,2.303,10.733,2.663,16.066
	c0.581-8.873-0.233-17.987-2.663-27.056c-11.926-44.506-57.632-70.895-102.138-58.97c-39.147,10.49-64.264,47.116-61.632,86.072
	C104.079,113.909,128.005,82.993,163.442,73.498z"/>
<path style="fill:#B3F1FF;" d="M206.795,196.501c-32.91,8.818-66.452-3.153-86.759-27.851c12.814,32.668,48.371,51.182,83.07,41.884
	c22.267-5.966,39.113-22.031,46.947-41.944C239.288,181.735,224.467,191.766,206.795,196.501z"/>
<path style="fill:#FFF9F2;" d="M278.555,107.421c22.441,59.492-14.888,124.148-77.63,134.459
	c-46.433,7.63-92.819-19.151-109.427-63.178c-22.442-59.492,14.888-124.148,77.63-134.459
	C215.56,36.612,261.946,63.393,278.555,107.421z M206.61,223.615c44.506-11.925,70.895-57.632,58.97-102.138
	c-11.926-44.506-57.632-70.895-102.138-58.97s-70.895,57.632-58.969,102.138C116.398,209.151,162.104,235.54,206.61,223.615z"/>
<path style="fill:#FFD499;" d="M343.329,356.374l-39.515-76.541c-2.954-5.717-7.544-10.423-13.187-13.518l-26.685-14.637
	l-26.184-41.784c-2.35-3.75-7.595-4.413-10.766-1.326c-10.618,10.335-13.552,26.784-6.256,40.429l12.999,24.312l-0.332,0.239
	l-0.302,3.186c-2.078,21.925,9.176,42.963,28.567,53.403l0.323,0.174l4.425,1.417c2.914,12.65,3.857,21.328,3.857,21.328
	c1.268,11.917-5.163,23.838-16.711,28.945c-2.498,1.104-5.069,1.796-7.646,2.147l47.15,33.587L343.329,356.374L343.329,356.374z"/>
<path style="fill:#FFD499;" d="M200.881,345.483l-1.463,4.35c-1.552,4.615-0.161,9.712,3.52,12.898l22.749,19.505
	c1.292,1.108,3.349,0.67,3.995-0.905c2.627-6.407,0.574-14.003-5.337-18.14L200.881,345.483z"/>
<path style="fill:#CCAA7A;" d="M230.635,373.714c-0.517-4.095-2.643-7.97-6.29-10.522l-23.463-17.708l-1.263,3.753L230.635,373.714z
	"/>
<polygon style="fill:#CCAA7A;" points="185.837,263.696 190.103,250.186 192.345,268.736 "/>
<path style="fill:#FFD499;" d="M185.084,289.855l-0.85,13.67c-0.249,3.995,1.512,7.852,4.694,10.281l34.502,26.107
	c1.553,1.175,3.814,0.587,4.61-1.189c3.803-8.487,1.178-18.748-6.724-24.277L185.084,289.855z"/>
<path style="fill:#CCAA7A;" d="M184.816,294.159l44.014,30.799c-1.236-4.105-3.728-7.861-7.513-10.511l-36.233-24.592
	L184.816,294.159z"/>
<path style="fill:#FFD499;" d="M185.837,263.696l-4.307,13.328c-1.62,5.014,0.221,10.499,4.538,13.52l33.162,22.977
	c1.188,0.823,2.908,0.52,3.571-0.763c4.478-8.666,1.966-19.522-6.246-25.269L185.837,263.696z"/>
<path style="fill:#FFD499;" d="M193.388,317.211l-0.686,15.46c-0.171,3.856,1.523,7.56,4.554,9.951l31.571,24.677
	c1.127,0.881,2.855,0.625,3.511-0.646c4.462-8.662,1.947-19.505-6.258-25.247L193.388,317.211z"/>
<path style="fill:#CCAA7A;" d="M233.595,351.923c-1.236-4.108-3.727-7.867-7.516-10.518l-32.691-24.194l-0.172,3.885
	L233.595,351.923z"/>
<path style="fill:#FFFFFF;" d="M235.552,211.279c-0.808-1.289-2.205-2.058-3.738-2.058c-0.241,0-0.478,0.029-0.712,0.068
	c-3.77,7.157-2.646,16.219,3.375,22.239l8.462-8.461L235.552,211.279z"/>
<path style="fill:#FFFFFF;" d="M208.014,302.58l12.6,8.73c1.329-2.68,1.875-5.576,1.73-8.42c-0.73-3.481-2.434-6.801-5.138-9.504
	L208.014,302.58z"/>
<path style="fill:#FFFFFF;" d="M225.663,337.66c0.575-1.284,0.967-2.609,1.21-3.945c-0.745-3.434-2.437-6.704-5.106-9.373
	l-6.287,6.287l9.524,7.207c0.073,0.056,0.153,0.082,0.245,0.082C225.299,337.918,225.552,337.905,225.663,337.66z"/>
<path style="fill:#FFFFFF;" d="M219.523,356.72l10.688,8.354c0.426-0.88,0.762-1.784,1.024-2.7
	c-0.347-4.334-2.165-8.571-5.48-11.887L219.523,356.72z"/>
<path style="fill:#FFFFFF;" d="M221.766,369.371l-3.268,3.268l8.597,7.371C226.524,376.118,224.762,372.367,221.766,369.371z"/>
<path style="fill:#FFFFFF;" d="M252.702,237.471c0,0-0.509,0.856-1.44,1.938c-0.46,0.549-1.023,1.155-1.655,1.771
	c-0.629,0.62-1.321,1.256-2.044,1.854c-0.722,0.6-1.471,1.166-2.197,1.669c-0.722,0.508-1.422,0.95-2.047,1.3
	c-1.234,0.716-2.172,1.057-2.172,1.057s0.508-0.858,1.439-1.941c0.46-0.549,1.022-1.156,1.655-1.771
	c0.628-0.621,1.323-1.253,2.046-1.853c0.722-0.6,1.474-1.163,2.199-1.667c0.722-0.507,1.422-0.949,2.046-1.3
	C251.767,237.813,252.702,237.471,252.702,237.471z"/>
<path style="fill:#FFFFFF;" d="M253.006,241.696c0,0-0.322,0.702-0.976,1.553c-0.635,0.871-1.605,1.884-2.676,2.776
	c-1.073,0.89-2.246,1.658-3.222,2.12c-0.956,0.484-1.707,0.671-1.707,0.671s0.321-0.704,0.975-1.555
	c0.634-0.873,1.605-1.884,2.677-2.774c1.075-0.888,2.249-1.655,3.223-2.118C252.256,241.884,253.006,241.696,253.006,241.696z"/>
<polygon style="fill:#FFF9F2;" points="345.217,353.397 339.077,348.138 285.021,413.683 290.026,419.061 "/>
<polygon style="fill:#2F2F2F;" points="450,437.653 346.455,351.923 287.962,421.518 315.278,450 450,450 "/>
</svg>
