<svg width="330" height="58" viewBox="0 0 330 58" fill="none" xmlns="http://www.w3.org/2000/svg">
<rect x="272.311" width="57.0726" height="57.0726" rx="9.67342" fill="url(#paint0_linear_2050_87)"/>
<path d="M316.808 46.9153H306.651V39.177C306.651 37.8414 307.733 36.7582 309.069 36.758H316.808V46.9153ZM292.866 39.4895C292.866 43.4963 289.618 46.7453 285.611 46.7453H284.885V31.7229H292.866V39.4895ZM300.164 20.4563C304.17 20.4563 307.418 23.7044 307.418 27.7112V28.4367H284.885V20.4563H300.164ZM316.807 9.91525C316.807 13.922 313.559 17.1701 309.552 17.1701H284.885V9.18967H316.807V9.91525Z" fill="white"/>
<path d="M8.67196 40.7362V12.4891H14.7249V40.7362H8.67196ZM11.2546 29.6795V24.4739H28.0011V29.6795H11.2546ZM11.4563 17.9367V12.4891H29.6959V17.9367H11.4563ZM32.1524 40.7362L44.339 12.4891H50.0288L62.1751 40.7362H55.88L48.9796 24.5547C48.7644 24.0704 48.5358 23.5189 48.2936 22.9002C48.0784 22.2814 47.8498 21.6492 47.6076 21.0036C47.3924 20.3579 47.1772 19.7257 46.962 19.107C46.7737 18.4882 46.5988 17.9367 46.4374 17.4525L47.6883 17.4122C47.5269 18.0309 47.3386 18.6497 47.1234 19.2684C46.9351 19.8602 46.7199 20.4655 46.4778 21.0843C46.2625 21.703 46.0339 22.3083 45.7917 22.9002C45.5496 23.492 45.3075 24.0839 45.0654 24.6757L38.165 40.7362H32.1524ZM37.7211 34.9657L39.7791 30.083H54.2659L55.8397 34.9657H37.7211ZM68.6105 40.7362V12.4891H74.6634V35.2886H89.7151V40.7362H68.6105ZM101.2 40.7362V17.9367H91.8378V12.4891H116.857V17.9367H107.253V40.7362H101.2ZM118.651 40.7362L130.838 12.4891H136.528L148.674 40.7362H142.379L135.479 24.5547C135.263 24.0704 135.035 23.5189 134.793 22.9002C134.577 22.2814 134.349 21.6492 134.107 21.0036C133.891 20.3579 133.676 19.7257 133.461 19.107C133.273 18.4882 133.098 17.9367 132.936 17.4525L134.187 17.4122C134.026 18.0309 133.838 18.6497 133.622 19.2684C133.434 19.8602 133.219 20.4655 132.977 21.0843C132.762 21.703 132.533 22.3083 132.291 22.9002C132.049 23.492 131.807 24.0839 131.564 24.6757L124.664 40.7362H118.651ZM124.22 34.9657L126.278 30.083H140.765L142.339 34.9657H124.22Z" fill="white"/>
<path d="M167.033 40.9784C164.477 40.9784 162.217 40.4538 160.253 39.4046C158.316 38.3554 156.796 36.9161 155.693 35.0868C154.59 33.2306 154.039 31.1457 154.039 28.8321V12.4487H160.132V28.5496C160.132 29.8678 160.428 31.0515 161.02 32.1007C161.639 33.1499 162.459 33.9838 163.482 34.6026C164.531 35.2213 165.714 35.5307 167.033 35.5307C168.378 35.5307 169.575 35.2213 170.624 34.6026C171.7 33.9838 172.547 33.1499 173.166 32.1007C173.785 31.0515 174.094 29.8678 174.094 28.5496V12.4487H179.986V28.8321C179.986 31.1457 179.434 33.2306 178.331 35.0868C177.228 36.9161 175.695 38.3554 173.731 39.4046C171.794 40.4538 169.561 40.9784 167.033 40.9784ZM189.788 40.7362V12.4891H195.357L213.233 33.5937H212.265C212.13 32.706 212.022 31.8451 211.942 31.0111C211.861 30.1503 211.78 29.3029 211.7 28.4689C211.646 27.608 211.592 26.7472 211.538 25.8863C211.511 24.9985 211.484 24.0973 211.458 23.1826C211.458 22.2411 211.458 21.2457 211.458 20.1965V12.4891H217.389V40.7362H211.74L193.541 19.4298L194.913 19.4702C194.993 20.4655 195.074 21.3802 195.155 22.2142C195.236 23.0212 195.316 23.7745 195.397 24.4739C195.478 25.1734 195.532 25.8459 195.558 26.4916C195.612 27.1372 195.653 27.7963 195.679 28.4689C195.706 29.1415 195.72 29.8409 195.72 30.5673V40.7362H189.788ZM241.142 41.1398C238.855 41.1398 236.757 40.7766 234.847 40.0502C232.964 39.3239 231.309 38.3016 229.883 36.9834C228.458 35.6652 227.368 34.1183 226.615 32.3428C225.862 30.5673 225.485 28.6303 225.485 26.532C225.485 24.4336 225.862 22.5101 226.615 20.7615C227.368 18.9859 228.458 17.4391 229.883 16.1209C231.309 14.7758 232.964 13.74 234.847 13.0137C236.757 12.2873 238.855 11.9241 241.142 11.9241C243.429 11.9241 245.514 12.2873 247.397 13.0137C249.307 13.74 250.961 14.7758 252.36 16.1209C253.786 17.4391 254.875 18.9859 255.629 20.7615C256.409 22.537 256.799 24.4605 256.799 26.532C256.799 28.6034 256.409 30.5269 255.629 32.3024C254.875 34.078 253.786 35.6383 252.36 36.9834C250.961 38.3016 249.307 39.3239 247.397 40.0502C245.514 40.7766 243.429 41.1398 241.142 41.1398ZM241.142 35.4096C242.514 35.4096 243.778 35.1944 244.935 34.764C246.119 34.3335 247.128 33.7148 247.962 32.9077C248.822 32.1007 249.482 31.1591 249.939 30.083C250.423 29.0069 250.665 27.8232 250.665 26.532C250.665 25.2407 250.423 24.057 249.939 22.9809C249.482 21.9048 248.822 20.9767 247.962 20.1965C247.128 19.3895 246.119 18.7707 244.935 18.3403C243.778 17.8829 242.514 17.6543 241.142 17.6543C239.77 17.6543 238.506 17.8829 237.349 18.3403C236.192 18.7707 235.17 19.3895 234.282 20.1965C233.421 21.0036 232.762 21.9452 232.305 23.0212C231.874 24.0973 231.659 25.2676 231.659 26.532C231.659 27.8232 231.874 29.0069 232.305 30.083C232.762 31.1322 233.421 32.0738 234.282 32.9077C235.17 33.7148 236.192 34.3335 237.349 34.764C238.506 35.1944 239.77 35.4096 241.142 35.4096Z" fill="white"/>
<defs>
<linearGradient id="paint0_linear_2050_87" x1="327.448" y1="74.7264" x2="298.429" y2="28.5363" gradientUnits="userSpaceOnUse">
<stop stop-color="#03DAC5"/>
<stop offset="1" stop-color="#0160A8"/>
</linearGradient>
</defs>
</svg>
