<svg width="272" height="48" viewBox="0 0 272 48" fill="none" xmlns="http://www.w3.org/2000/svg">
<rect x="224.782" width="47.2182" height="47.2182" rx="8.00317" fill="url(#paint0_linear_9_213)"/>
<path fill-rule="evenodd" clip-rule="evenodd" d="M261.596 8.20317V7.60294H235.186V14.2055L255.594 14.2055C258.909 14.2055 261.596 11.5182 261.596 8.20317ZM241.788 26.2454H235.186V38.6738H235.786C239.101 38.6738 241.788 35.9864 241.788 32.6714V26.2454ZM247.826 16.9242C251.141 16.9242 253.828 19.6115 253.828 22.9265V23.5267L235.186 23.5267V16.9242H247.826ZM261.596 38.8149V30.4117H255.194C254.089 30.4117 253.193 31.3075 253.193 32.4125V38.8149H261.596Z" fill="white"/>
<path d="M6.66421 34.6091V11.2392H11.672V34.6091H6.66421ZM8.80089 25.4615V21.1547H22.6559V25.4615H8.80089ZM8.96781 15.7462V11.2392H24.0581V15.7462H8.96781ZM26.0904 34.6091L36.1729 11.2392H40.8803L50.9293 34.6091H45.7212L40.0122 21.2215C39.8342 20.8209 39.645 20.3646 39.4447 19.8527C39.2666 19.3408 39.0774 18.8177 38.8771 18.2836C38.6991 17.7494 38.521 17.2263 38.343 16.7144C38.1872 16.2025 38.0425 15.7462 37.9089 15.3456L38.9439 15.3122C38.8103 15.8241 38.6545 16.3361 38.4765 16.848C38.3207 17.3376 38.1426 17.8384 37.9423 18.3503C37.7643 18.8622 37.5751 19.363 37.3748 19.8527C37.1745 20.3423 36.9741 20.832 36.7738 21.3216L31.0649 34.6091H26.0904ZM30.6977 29.835L32.4003 25.7953H44.3857L45.6878 29.835H30.6977ZM56.2535 34.6091V11.2392H61.2614V30.102H73.7142V34.6091H56.2535ZM83.2158 34.6091V15.7462H75.4703V11.2392H96.1694V15.7462H88.2236V34.6091H83.2158ZM97.6543 34.6091L107.737 11.2392H112.444L122.493 34.6091H117.285L111.576 21.2215C111.398 20.8209 111.209 20.3646 111.008 19.8527C110.83 19.3408 110.641 18.8177 110.441 18.2836C110.263 17.7494 110.085 17.2263 109.907 16.7144C109.751 16.2025 109.606 15.7462 109.473 15.3456L110.508 15.3122C110.374 15.8241 110.218 16.3361 110.04 16.848C109.885 17.3376 109.706 17.8384 109.506 18.3503C109.328 18.8622 109.139 19.363 108.939 19.8527C108.738 20.3423 108.538 20.832 108.338 21.3216L102.629 34.6091H97.6543ZM102.261 29.835L103.964 25.7953H115.95L117.252 29.835H102.261Z" fill="#0160A8"/>
<path d="M137.682 34.8094C135.567 34.8094 133.698 34.3754 132.073 33.5074C130.47 32.6394 129.213 31.4486 128.3 29.9351C127.388 28.3994 126.932 26.6745 126.932 24.7604V11.2058H131.973V24.5267C131.973 25.6173 132.218 26.5966 132.707 27.4646C133.219 28.3326 133.898 29.0226 134.744 29.5345C135.612 30.0464 136.591 30.3024 137.682 30.3024C138.795 30.3024 139.785 30.0464 140.653 29.5345C141.543 29.0226 142.244 28.3326 142.756 27.4646C143.268 26.5966 143.524 25.6173 143.524 24.5267V11.2058H148.399V24.7604C148.399 26.6745 147.942 28.3994 147.03 29.9351C146.117 31.4486 144.849 32.6394 143.224 33.5074C141.621 34.3754 139.774 34.8094 137.682 34.8094ZM156.508 34.6091V11.2392H161.115L175.905 28.6999H175.104C174.993 27.9654 174.904 27.2531 174.837 26.5632C174.77 25.851 174.703 25.1499 174.636 24.4599C174.592 23.7477 174.547 23.0354 174.503 22.3232C174.481 21.5887 174.458 20.8431 174.436 20.0864C174.436 19.3074 174.436 18.4839 174.436 17.6158V11.2392H179.344V34.6091H174.67L159.613 16.9815L160.748 17.0149C160.815 17.8384 160.882 18.5952 160.948 19.2851C161.015 19.9528 161.082 20.576 161.149 21.1547C161.215 21.7334 161.26 22.2898 161.282 22.824C161.327 23.3582 161.36 23.9035 161.382 24.4599C161.405 25.0163 161.416 25.595 161.416 26.1959V34.6091H156.508ZM198.995 34.943C197.103 34.943 195.367 34.6425 193.787 34.0415C192.229 33.4406 190.86 32.5948 189.681 31.5042C188.501 30.4136 187.6 29.1339 186.976 27.6649C186.353 26.1959 186.042 24.5934 186.042 22.8574C186.042 21.1213 186.353 19.5299 186.976 18.0832C187.6 16.6143 188.501 15.3345 189.681 14.2439C190.86 13.131 192.229 12.2741 193.787 11.6732C195.367 11.0723 197.103 10.7718 198.995 10.7718C200.887 10.7718 202.612 11.0723 204.17 11.6732C205.75 12.2741 207.119 13.131 208.276 14.2439C209.456 15.3345 210.357 16.6143 210.981 18.0832C211.626 19.5522 211.949 21.1436 211.949 22.8574C211.949 24.5712 211.626 26.1625 210.981 27.6315C210.357 29.1005 209.456 30.3914 208.276 31.5042C207.119 32.5948 205.75 33.4406 204.17 34.0415C202.612 34.6425 200.887 34.943 198.995 34.943ZM198.995 30.2022C200.13 30.2022 201.176 30.0241 202.133 29.668C203.113 29.3119 203.947 28.8 204.637 28.1323C205.35 27.4646 205.895 26.6856 206.273 25.7953C206.674 24.905 206.874 23.9257 206.874 22.8574C206.874 21.789 206.674 20.8097 206.273 19.9194C205.895 19.0292 205.35 18.2613 204.637 17.6158C203.947 16.9481 203.113 16.4362 202.133 16.0801C201.176 15.7017 200.13 15.5125 198.995 15.5125C197.86 15.5125 196.814 15.7017 195.857 16.0801C194.9 16.4362 194.054 16.9481 193.32 17.6158C192.607 18.2836 192.062 19.0625 191.684 19.9528C191.328 20.8431 191.15 21.8113 191.15 22.8574C191.15 23.9257 191.328 24.905 191.684 25.7953C192.062 26.6633 192.607 27.4423 193.32 28.1323C194.054 28.8 194.9 29.3119 195.857 29.668C196.814 30.0241 197.86 30.2022 198.995 30.2022Z" fill="#03DAC5"/>
<defs>
<linearGradient id="paint0_linear_9_213" x1="270.399" y1="61.8239" x2="246.39" y2="23.6091" gradientUnits="userSpaceOnUse">
<stop stop-color="#03DAC5"/>
<stop offset="1" stop-color="#0160A8"/>
</linearGradient>
</defs>
</svg>
